<?xml version="1.0" encoding="UTF-8" standalone="no"?>
<svg xmlns="http://www.w3.org/2000/svg" xmlns:xlink="http://www.w3.org/1999/xlink" contentStyleType="text/css" height="708px" preserveAspectRatio="none" style="width:756px;height:708px;background:#FFFFFF;" version="1.1" viewBox="0 0 756 708" width="756px" zoomAndPan="magnify"><defs/><g><!--MD5=[3fd616f346a44cd59a91eb10b19e157c]
class User--><g id="elem_User"><rect codeLine="1" fill="#F1F1F1" height="113.1875" id="User" rx="2.5" ry="2.5" style="stroke:#181818;stroke-width:0.5;" width="136" x="470.5" y="156"/><ellipse cx="518.25" cy="172" fill="#A9DCDF" rx="11" ry="11" style="stroke:#181818;stroke-width:1.0;"/><path d="M520.3281,173.8125 L520.7188,174.7969 L520.3281,174.7969 C519.875,174.7969 519.7656,174.8125 519.6094,174.9219 C519.3594,175.0781 519.2031,175.3594 519.2031,175.6563 C519.2031,175.9219 519.3438,176.1719 519.5625,176.3281 C519.7031,176.4531 519.9063,176.5 520.3281,176.5 L522.6875,176.5 C523.0469,176.5 523.2656,176.4688 523.4063,176.375 C523.6563,176.2344 523.8125,175.9375 523.8125,175.6563 C523.8125,175.375 523.6719,175.125 523.4531,174.9688 C523.2813,174.8281 523.125,174.7969 522.6563,174.7969 L519.2656,166.5938 L515.5938,166.5938 C515.1406,166.5938 515.0156,166.6094 514.8594,166.7031 C514.6094,166.875 514.4531,167.1563 514.4531,167.4375 C514.4531,167.7188 514.5938,167.9688 514.8125,168.1406 C514.9844,168.25 515.1563,168.2813 515.5938,168.2813 L516.6719,168.2813 L514.0313,174.7969 C513.6094,174.7969 513.4531,174.8125 513.2969,174.9219 C513.0469,175.0781 512.8906,175.3594 512.8906,175.6563 C512.8906,176.2188 513.2656,176.5 514.0156,176.5 L516.2813,176.5 C516.6406,176.5 516.8594,176.4688 516.9844,176.375 C517.25,176.2344 517.3906,175.9375 517.3906,175.6563 C517.3906,175.375 517.2656,175.125 517.0469,174.9531 C516.875,174.8281 516.7344,174.7969 516.2813,174.7969 L515.8906,174.7969 L516.2813,173.8125 L520.3281,173.8125 Z M519.625,172.1094 L516.9531,172.1094 L518.2969,168.8438 L519.625,172.1094 Z " fill="#000000"/><text fill="#000000" font-family="sans-serif" font-size="14" font-style="italic" lengthAdjust="spacing" textLength="32" x="538.75" y="176.8467">User</text><line style="stroke:#181818;stroke-width:0.5;" x1="471.5" x2="605.5" y1="188" y2="188"/><text fill="#000000" font-family="sans-serif" font-size="14" lengthAdjust="spacing" textLength="124" x="476.5" y="204.9951">firstName: String</text><text fill="#000000" font-family="sans-serif" font-size="14" lengthAdjust="spacing" textLength="120" x="476.5" y="221.292">lastName: String</text><text fill="#000000" font-family="sans-serif" font-size="14" lengthAdjust="spacing" textLength="92" x="476.5" y="237.5889">email: String</text><text fill="#000000" font-family="sans-serif" font-size="14" lengthAdjust="spacing" textLength="120" x="476.5" y="253.8857">password: String</text><line style="stroke:#181818;stroke-width:0.5;" x1="471.5" x2="605.5" y1="261.1875" y2="261.1875"/></g><!--MD5=[ed6624c6556d5e7b1bd23032162d20b7]
class Client--><g id="elem_Client"><rect codeLine="8" fill="#F1F1F1" height="64.2969" id="Client" rx="2.5" ry="2.5" style="stroke:#181818;stroke-width:0.5;" width="163" x="457" y="362.5"/><ellipse cx="512.75" cy="378.5" fill="#ADD1B2" rx="11" ry="11" style="stroke:#181818;stroke-width:1.0;"/><path d="M515.0938,374.1719 C514.1563,373.7344 513.5625,373.5938 512.6875,373.5938 C510.0625,373.5938 508.0625,375.6719 508.0625,378.3906 L508.0625,379.5156 C508.0625,382.0938 510.1719,383.9844 513.0625,383.9844 C514.2813,383.9844 515.4375,383.6875 516.1875,383.1406 C516.7656,382.7344 517.0938,382.2813 517.0938,381.8906 C517.0938,381.4375 516.7031,381.0469 516.2344,381.0469 C516.0156,381.0469 515.8125,381.125 515.625,381.3125 C515.1719,381.7969 515.1719,381.7969 514.9844,381.8906 C514.5625,382.1563 513.875,382.2813 513.1094,382.2813 C511.0625,382.2813 509.7656,381.1875 509.7656,379.4844 L509.7656,378.3906 C509.7656,376.6094 511.0156,375.2969 512.75,375.2969 C513.3281,375.2969 513.9375,375.4531 514.4063,375.7031 C514.8906,375.9844 515.0625,376.2031 515.1563,376.6094 C515.2188,377.0156 515.25,377.1406 515.3906,377.2656 C515.5313,377.4063 515.7656,377.5156 515.9844,377.5156 C516.25,377.5156 516.5156,377.375 516.6875,377.1563 C516.7969,377 516.8281,376.8125 516.8281,376.3906 L516.8281,374.9688 C516.8281,374.5313 516.8125,374.4063 516.7188,374.25 C516.5625,373.9844 516.2813,373.8438 515.9844,373.8438 C515.6875,373.8438 515.4844,373.9375 515.2656,374.25 L515.0938,374.1719 Z " fill="#000000"/><text fill="#000000" font-family="sans-serif" font-size="14" lengthAdjust="spacing" textLength="43" x="533.25" y="383.3467">Client</text><line style="stroke:#181818;stroke-width:0.5;" x1="458" x2="619" y1="394.5" y2="394.5"/><text fill="#000000" font-family="sans-serif" font-size="14" lengthAdjust="spacing" textLength="151" x="463" y="411.4951">clientNumber: String</text><line style="stroke:#181818;stroke-width:0.5;" x1="458" x2="619" y1="418.7969" y2="418.7969"/></g><!--MD5=[b24ed8d4ae84bae9290d9aab401637c7]
class Manager--><g id="elem_Manager"><rect codeLine="12" fill="#F1F1F1" height="48" id="Manager" rx="2.5" ry="2.5" style="stroke:#181818;stroke-width:0.5;" width="93" x="655" y="370.5"/><ellipse cx="670" cy="386.5" fill="#ADD1B2" rx="11" ry="11" style="stroke:#181818;stroke-width:1.0;"/><path d="M672.3438,382.1719 C671.4063,381.7344 670.8125,381.5938 669.9375,381.5938 C667.3125,381.5938 665.3125,383.6719 665.3125,386.3906 L665.3125,387.5156 C665.3125,390.0938 667.4219,391.9844 670.3125,391.9844 C671.5313,391.9844 672.6875,391.6875 673.4375,391.1406 C674.0156,390.7344 674.3438,390.2813 674.3438,389.8906 C674.3438,389.4375 673.9531,389.0469 673.4844,389.0469 C673.2656,389.0469 673.0625,389.125 672.875,389.3125 C672.4219,389.7969 672.4219,389.7969 672.2344,389.8906 C671.8125,390.1563 671.125,390.2813 670.3594,390.2813 C668.3125,390.2813 667.0156,389.1875 667.0156,387.4844 L667.0156,386.3906 C667.0156,384.6094 668.2656,383.2969 670,383.2969 C670.5781,383.2969 671.1875,383.4531 671.6563,383.7031 C672.1406,383.9844 672.3125,384.2031 672.4063,384.6094 C672.4688,385.0156 672.5,385.1406 672.6406,385.2656 C672.7813,385.4063 673.0156,385.5156 673.2344,385.5156 C673.5,385.5156 673.7656,385.375 673.9375,385.1563 C674.0469,385 674.0781,384.8125 674.0781,384.3906 L674.0781,382.9688 C674.0781,382.5313 674.0625,382.4063 673.9688,382.25 C673.8125,381.9844 673.5313,381.8438 673.2344,381.8438 C672.9375,381.8438 672.7344,381.9375 672.5156,382.25 L672.3438,382.1719 Z " fill="#000000"/><text fill="#000000" font-family="sans-serif" font-size="14" lengthAdjust="spacing" textLength="61" x="684" y="391.3467">Manager</text><line style="stroke:#181818;stroke-width:0.5;" x1="656" x2="747" y1="402.5" y2="402.5"/><line style="stroke:#181818;stroke-width:0.5;" x1="656" x2="747" y1="410.5" y2="410.5"/></g><!--MD5=[db6d18d8099558415abc41d00477ab92]
class Admin--><g id="elem_Admin"><rect codeLine="16" fill="#F1F1F1" height="48" id="Admin" rx="2.5" ry="2.5" style="stroke:#181818;stroke-width:0.5;" width="78" x="343.5" y="370.5"/><ellipse cx="358.5" cy="386.5" fill="#ADD1B2" rx="11" ry="11" style="stroke:#181818;stroke-width:1.0;"/><path d="M360.8438,382.1719 C359.9063,381.7344 359.3125,381.5938 358.4375,381.5938 C355.8125,381.5938 353.8125,383.6719 353.8125,386.3906 L353.8125,387.5156 C353.8125,390.0938 355.9219,391.9844 358.8125,391.9844 C360.0313,391.9844 361.1875,391.6875 361.9375,391.1406 C362.5156,390.7344 362.8438,390.2813 362.8438,389.8906 C362.8438,389.4375 362.4531,389.0469 361.9844,389.0469 C361.7656,389.0469 361.5625,389.125 361.375,389.3125 C360.9219,389.7969 360.9219,389.7969 360.7344,389.8906 C360.3125,390.1563 359.625,390.2813 358.8594,390.2813 C356.8125,390.2813 355.5156,389.1875 355.5156,387.4844 L355.5156,386.3906 C355.5156,384.6094 356.7656,383.2969 358.5,383.2969 C359.0781,383.2969 359.6875,383.4531 360.1563,383.7031 C360.6406,383.9844 360.8125,384.2031 360.9063,384.6094 C360.9688,385.0156 361,385.1406 361.1406,385.2656 C361.2813,385.4063 361.5156,385.5156 361.7344,385.5156 C362,385.5156 362.2656,385.375 362.4375,385.1563 C362.5469,385 362.5781,384.8125 362.5781,384.3906 L362.5781,382.9688 C362.5781,382.5313 362.5625,382.4063 362.4688,382.25 C362.3125,381.9844 362.0313,381.8438 361.7344,381.8438 C361.4375,381.8438 361.2344,381.9375 361.0156,382.25 L360.8438,382.1719 Z " fill="#000000"/><text fill="#000000" font-family="sans-serif" font-size="14" lengthAdjust="spacing" textLength="46" x="372.5" y="391.3467">Admin</text><line style="stroke:#181818;stroke-width:0.5;" x1="344.5" x2="420.5" y1="402.5" y2="402.5"/><line style="stroke:#181818;stroke-width:0.5;" x1="344.5" x2="420.5" y1="410.5" y2="410.5"/></g><!--MD5=[f9a29335b499db729be669fd1bd54958]
class Account--><g id="elem_Account"><rect codeLine="20" fill="#F1F1F1" height="80.5938" id="Account" rx="2.5" ry="2.5" style="stroke:#181818;stroke-width:0.5;" width="147" x="9" y="354"/><ellipse cx="49.65" cy="370" fill="#A9DCDF" rx="11" ry="11" style="stroke:#181818;stroke-width:1.0;"/><path d="M51.7281,371.8125 L52.1188,372.7969 L51.7281,372.7969 C51.275,372.7969 51.1656,372.8125 51.0094,372.9219 C50.7594,373.0781 50.6031,373.3594 50.6031,373.6563 C50.6031,373.9219 50.7438,374.1719 50.9625,374.3281 C51.1031,374.4531 51.3063,374.5 51.7281,374.5 L54.0875,374.5 C54.4469,374.5 54.6656,374.4688 54.8063,374.375 C55.0563,374.2344 55.2125,373.9375 55.2125,373.6563 C55.2125,373.375 55.0719,373.125 54.8531,372.9688 C54.6813,372.8281 54.525,372.7969 54.0563,372.7969 L50.6656,364.5938 L46.9938,364.5938 C46.5406,364.5938 46.4156,364.6094 46.2594,364.7031 C46.0094,364.875 45.8531,365.1563 45.8531,365.4375 C45.8531,365.7188 45.9938,365.9688 46.2125,366.1406 C46.3844,366.25 46.5563,366.2813 46.9938,366.2813 L48.0719,366.2813 L45.4313,372.7969 C45.0094,372.7969 44.8531,372.8125 44.6969,372.9219 C44.4469,373.0781 44.2906,373.3594 44.2906,373.6563 C44.2906,374.2188 44.6656,374.5 45.4156,374.5 L47.6813,374.5 C48.0406,374.5 48.2594,374.4688 48.3844,374.375 C48.65,374.2344 48.7906,373.9375 48.7906,373.6563 C48.7906,373.375 48.6656,373.125 48.4469,372.9531 C48.275,372.8281 48.1344,372.7969 47.6813,372.7969 L47.2906,372.7969 L47.6813,371.8125 L51.7281,371.8125 Z M51.025,370.1094 L48.3531,370.1094 L49.6969,366.8438 L51.025,370.1094 Z " fill="#000000"/><text fill="#000000" font-family="sans-serif" font-size="14" font-style="italic" lengthAdjust="spacing" textLength="58" x="69.35" y="374.8467">Account</text><line style="stroke:#181818;stroke-width:0.5;" x1="10" x2="155" y1="386" y2="386"/><text fill="#000000" font-family="sans-serif" font-size="14" lengthAdjust="spacing" textLength="84" x="15" y="402.9951">iban: String</text><text fill="#000000" font-family="sans-serif" font-size="14" lengthAdjust="spacing" textLength="135" x="15" y="419.292">description: String</text><line style="stroke:#181818;stroke-width:0.5;" x1="10" x2="155" y1="426.5938" y2="426.5938"/></g><!--MD5=[3144bf3ae241fe2f7c2882746befd0a7]
class ExternalAccount--><g id="elem_ExternalAccount"><rect codeLine="25" fill="#F1F1F1" height="48" id="ExternalAccount" rx="2.5" ry="2.5" style="stroke:#181818;stroke-width:0.5;" width="151" x="7" y="520"/><ellipse cx="22" cy="536" fill="#ADD1B2" rx="11" ry="11" style="stroke:#181818;stroke-width:1.0;"/><path d="M24.3438,531.6719 C23.4063,531.2344 22.8125,531.0938 21.9375,531.0938 C19.3125,531.0938 17.3125,533.1719 17.3125,535.8906 L17.3125,537.0156 C17.3125,539.5938 19.4219,541.4844 22.3125,541.4844 C23.5313,541.4844 24.6875,541.1875 25.4375,540.6406 C26.0156,540.2344 26.3438,539.7813 26.3438,539.3906 C26.3438,538.9375 25.9531,538.5469 25.4844,538.5469 C25.2656,538.5469 25.0625,538.625 24.875,538.8125 C24.4219,539.2969 24.4219,539.2969 24.2344,539.3906 C23.8125,539.6563 23.125,539.7813 22.3594,539.7813 C20.3125,539.7813 19.0156,538.6875 19.0156,536.9844 L19.0156,535.8906 C19.0156,534.1094 20.2656,532.7969 22,532.7969 C22.5781,532.7969 23.1875,532.9531 23.6563,533.2031 C24.1406,533.4844 24.3125,533.7031 24.4063,534.1094 C24.4688,534.5156 24.5,534.6406 24.6406,534.7656 C24.7813,534.9063 25.0156,535.0156 25.2344,535.0156 C25.5,535.0156 25.7656,534.875 25.9375,534.6563 C26.0469,534.5 26.0781,534.3125 26.0781,533.8906 L26.0781,532.4688 C26.0781,532.0313 26.0625,531.9063 25.9688,531.75 C25.8125,531.4844 25.5313,531.3438 25.2344,531.3438 C24.9375,531.3438 24.7344,531.4375 24.5156,531.75 L24.3438,531.6719 Z " fill="#000000"/><text fill="#000000" font-family="sans-serif" font-size="14" lengthAdjust="spacing" textLength="119" x="36" y="540.8467">ExternalAccount</text><line style="stroke:#181818;stroke-width:0.5;" x1="8" x2="157" y1="552" y2="552"/><line style="stroke:#181818;stroke-width:0.5;" x1="8" x2="157" y1="560" y2="560"/></g><!--MD5=[c772d817ccd0d2cf3cd7b677b38a7b6a]
class InternalAccount--><g id="elem_InternalAccount"><rect codeLine="29" fill="#F1F1F1" height="64.2969" id="InternalAccount" rx="2.5" ry="2.5" style="stroke:#181818;stroke-width:0.5;" width="314" x="205.5" y="512"/><ellipse cx="300.75" cy="528" fill="#ADD1B2" rx="11" ry="11" style="stroke:#181818;stroke-width:1.0;"/><path d="M303.0938,523.6719 C302.1563,523.2344 301.5625,523.0938 300.6875,523.0938 C298.0625,523.0938 296.0625,525.1719 296.0625,527.8906 L296.0625,529.0156 C296.0625,531.5938 298.1719,533.4844 301.0625,533.4844 C302.2813,533.4844 303.4375,533.1875 304.1875,532.6406 C304.7656,532.2344 305.0938,531.7813 305.0938,531.3906 C305.0938,530.9375 304.7031,530.5469 304.2344,530.5469 C304.0156,530.5469 303.8125,530.625 303.625,530.8125 C303.1719,531.2969 303.1719,531.2969 302.9844,531.3906 C302.5625,531.6563 301.875,531.7813 301.1094,531.7813 C299.0625,531.7813 297.7656,530.6875 297.7656,528.9844 L297.7656,527.8906 C297.7656,526.1094 299.0156,524.7969 300.75,524.7969 C301.3281,524.7969 301.9375,524.9531 302.4063,525.2031 C302.8906,525.4844 303.0625,525.7031 303.1563,526.1094 C303.2188,526.5156 303.25,526.6406 303.3906,526.7656 C303.5313,526.9063 303.7656,527.0156 303.9844,527.0156 C304.25,527.0156 304.5156,526.875 304.6875,526.6563 C304.7969,526.5 304.8281,526.3125 304.8281,525.8906 L304.8281,524.4688 C304.8281,524.0313 304.8125,523.9063 304.7188,523.75 C304.5625,523.4844 304.2813,523.3438 303.9844,523.3438 C303.6875,523.3438 303.4844,523.4375 303.2656,523.75 L303.0938,523.6719 Z " fill="#000000"/><text fill="#000000" font-family="sans-serif" font-size="14" lengthAdjust="spacing" textLength="115" x="321.25" y="532.8467">InternalAccount</text><line style="stroke:#181818;stroke-width:0.5;" x1="206.5" x2="518.5" y1="544" y2="544"/><line style="stroke:#181818;stroke-width:0.5;" x1="206.5" x2="518.5" y1="552" y2="552"/><text fill="#000000" font-family="sans-serif" font-size="14" lengthAdjust="spacing" textLength="302" x="211.5" y="568.9951">getBalance(DateTime dateTime): Decimal</text></g><!--MD5=[cb9c1481c99a5b3d6ad6cac03982d147]
class SavingAcount--><g id="elem_SavingAcount"><rect codeLine="33" fill="#F1F1F1" height="48" id="SavingAcount" rx="2.5" ry="2.5" style="stroke:#181818;stroke-width:0.5;" width="130" x="208.5" y="645"/><ellipse cx="223.5" cy="661" fill="#ADD1B2" rx="11" ry="11" style="stroke:#181818;stroke-width:1.0;"/><path d="M225.8438,656.6719 C224.9063,656.2344 224.3125,656.0938 223.4375,656.0938 C220.8125,656.0938 218.8125,658.1719 218.8125,660.8906 L218.8125,662.0156 C218.8125,664.5938 220.9219,666.4844 223.8125,666.4844 C225.0313,666.4844 226.1875,666.1875 226.9375,665.6406 C227.5156,665.2344 227.8438,664.7813 227.8438,664.3906 C227.8438,663.9375 227.4531,663.5469 226.9844,663.5469 C226.7656,663.5469 226.5625,663.625 226.375,663.8125 C225.9219,664.2969 225.9219,664.2969 225.7344,664.3906 C225.3125,664.6563 224.625,664.7813 223.8594,664.7813 C221.8125,664.7813 220.5156,663.6875 220.5156,661.9844 L220.5156,660.8906 C220.5156,659.1094 221.7656,657.7969 223.5,657.7969 C224.0781,657.7969 224.6875,657.9531 225.1563,658.2031 C225.6406,658.4844 225.8125,658.7031 225.9063,659.1094 C225.9688,659.5156 226,659.6406 226.1406,659.7656 C226.2813,659.9063 226.5156,660.0156 226.7344,660.0156 C227,660.0156 227.2656,659.875 227.4375,659.6563 C227.5469,659.5 227.5781,659.3125 227.5781,658.8906 L227.5781,657.4688 C227.5781,657.0313 227.5625,656.9063 227.4688,656.75 C227.3125,656.4844 227.0313,656.3438 226.7344,656.3438 C226.4375,656.3438 226.2344,656.4375 226.0156,656.75 L225.8438,656.6719 Z " fill="#000000"/><text fill="#000000" font-family="sans-serif" font-size="14" lengthAdjust="spacing" textLength="98" x="237.5" y="665.8467">SavingAcount</text><line style="stroke:#181818;stroke-width:0.5;" x1="209.5" x2="337.5" y1="677" y2="677"/><line style="stroke:#181818;stroke-width:0.5;" x1="209.5" x2="337.5" y1="685" y2="685"/></g><!--MD5=[6550b3328119fb320e177637455e5670]
class CheckingAccount--><g id="elem_CheckingAccount"><rect codeLine="37" fill="#F1F1F1" height="64.2969" id="CheckingAccount" rx="2.5" ry="2.5" style="stroke:#181818;stroke-width:0.5;" width="158" x="373.5" y="637"/><ellipse cx="388.5" cy="653" fill="#ADD1B2" rx="11" ry="11" style="stroke:#181818;stroke-width:1.0;"/><path d="M390.8438,648.6719 C389.9063,648.2344 389.3125,648.0938 388.4375,648.0938 C385.8125,648.0938 383.8125,650.1719 383.8125,652.8906 L383.8125,654.0156 C383.8125,656.5938 385.9219,658.4844 388.8125,658.4844 C390.0313,658.4844 391.1875,658.1875 391.9375,657.6406 C392.5156,657.2344 392.8438,656.7813 392.8438,656.3906 C392.8438,655.9375 392.4531,655.5469 391.9844,655.5469 C391.7656,655.5469 391.5625,655.625 391.375,655.8125 C390.9219,656.2969 390.9219,656.2969 390.7344,656.3906 C390.3125,656.6563 389.625,656.7813 388.8594,656.7813 C386.8125,656.7813 385.5156,655.6875 385.5156,653.9844 L385.5156,652.8906 C385.5156,651.1094 386.7656,649.7969 388.5,649.7969 C389.0781,649.7969 389.6875,649.9531 390.1563,650.2031 C390.6406,650.4844 390.8125,650.7031 390.9063,651.1094 C390.9688,651.5156 391,651.6406 391.1406,651.7656 C391.2813,651.9063 391.5156,652.0156 391.7344,652.0156 C392,652.0156 392.2656,651.875 392.4375,651.6563 C392.5469,651.5 392.5781,651.3125 392.5781,650.8906 L392.5781,649.4688 C392.5781,649.0313 392.5625,648.9063 392.4688,648.75 C392.3125,648.4844 392.0313,648.3438 391.7344,648.3438 C391.4375,648.3438 391.2344,648.4375 391.0156,648.75 L390.8438,648.6719 Z " fill="#000000"/><text fill="#000000" font-family="sans-serif" font-size="14" lengthAdjust="spacing" textLength="126" x="402.5" y="657.8467">CheckingAccount</text><line style="stroke:#181818;stroke-width:0.5;" x1="374.5" x2="530.5" y1="669" y2="669"/><text fill="#000000" font-family="sans-serif" font-size="14" lengthAdjust="spacing" textLength="143" x="379.5" y="685.9951">lowerLimit: Decimal</text><line style="stroke:#181818;stroke-width:0.5;" x1="374.5" x2="530.5" y1="693.2969" y2="693.2969"/></g><!--MD5=[4555bb1b0911a5adf28ce6dbe60fed2e]
class Transaction--><g id="elem_Transaction"><rect codeLine="41" fill="#F1F1F1" height="129.4844" id="Transaction" rx="2.5" ry="2.5" style="stroke:#181818;stroke-width:0.5;" width="223" x="55" y="148"/><ellipse cx="120.25" cy="164" fill="#ADD1B2" rx="11" ry="11" style="stroke:#181818;stroke-width:1.0;"/><path d="M122.5938,159.6719 C121.6563,159.2344 121.0625,159.0938 120.1875,159.0938 C117.5625,159.0938 115.5625,161.1719 115.5625,163.8906 L115.5625,165.0156 C115.5625,167.5938 117.6719,169.4844 120.5625,169.4844 C121.7813,169.4844 122.9375,169.1875 123.6875,168.6406 C124.2656,168.2344 124.5938,167.7813 124.5938,167.3906 C124.5938,166.9375 124.2031,166.5469 123.7344,166.5469 C123.5156,166.5469 123.3125,166.625 123.125,166.8125 C122.6719,167.2969 122.6719,167.2969 122.4844,167.3906 C122.0625,167.6563 121.375,167.7813 120.6094,167.7813 C118.5625,167.7813 117.2656,166.6875 117.2656,164.9844 L117.2656,163.8906 C117.2656,162.1094 118.5156,160.7969 120.25,160.7969 C120.8281,160.7969 121.4375,160.9531 121.9063,161.2031 C122.3906,161.4844 122.5625,161.7031 122.6563,162.1094 C122.7188,162.5156 122.75,162.6406 122.8906,162.7656 C123.0313,162.9063 123.2656,163.0156 123.4844,163.0156 C123.75,163.0156 124.0156,162.875 124.1875,162.6563 C124.2969,162.5 124.3281,162.3125 124.3281,161.8906 L124.3281,160.4688 C124.3281,160.0313 124.3125,159.9063 124.2188,159.75 C124.0625,159.4844 123.7813,159.3438 123.4844,159.3438 C123.1875,159.3438 122.9844,159.4375 122.7656,159.75 L122.5938,159.6719 Z " fill="#000000"/><text fill="#000000" font-family="sans-serif" font-size="14" lengthAdjust="spacing" textLength="84" x="140.75" y="168.8467">Transaction</text><line style="stroke:#181818;stroke-width:0.5;" x1="56" x2="277" y1="180" y2="180"/><text fill="#000000" font-family="sans-serif" font-size="14" lengthAdjust="spacing" textLength="115" x="61" y="196.9951">principal: Client</text><text fill="#000000" font-family="sans-serif" font-size="14" lengthAdjust="spacing" textLength="122" x="61" y="213.292">amount: Decimal</text><text fill="#000000" font-family="sans-serif" font-size="14" lengthAdjust="spacing" textLength="135" x="61" y="229.5889">description: String</text><text fill="#000000" font-family="sans-serif" font-size="14" lengthAdjust="spacing" textLength="211" x="61" y="245.8857">creationDateTime: DateTime</text><text fill="#000000" font-family="sans-serif" font-size="14" lengthAdjust="spacing" textLength="196" x="61" y="262.1826">actionDateTime: DateTime</text><line style="stroke:#181818;stroke-width:0.5;" x1="56" x2="277" y1="269.4844" y2="269.4844"/></g><!--MD5=[d2543b6030cba58518e60e2e2f7be175]
class Agency--><g id="elem_Agency"><rect codeLine="49" fill="#F1F1F1" height="64.2969" id="Agency" rx="2.5" ry="2.5" style="stroke:#181818;stroke-width:0.5;" width="105" x="596" y="512"/><ellipse cx="620" cy="528" fill="#ADD1B2" rx="11" ry="11" style="stroke:#181818;stroke-width:1.0;"/><path d="M622.3438,523.6719 C621.4063,523.2344 620.8125,523.0938 619.9375,523.0938 C617.3125,523.0938 615.3125,525.1719 615.3125,527.8906 L615.3125,529.0156 C615.3125,531.5938 617.4219,533.4844 620.3125,533.4844 C621.5313,533.4844 622.6875,533.1875 623.4375,532.6406 C624.0156,532.2344 624.3438,531.7813 624.3438,531.3906 C624.3438,530.9375 623.9531,530.5469 623.4844,530.5469 C623.2656,530.5469 623.0625,530.625 622.875,530.8125 C622.4219,531.2969 622.4219,531.2969 622.2344,531.3906 C621.8125,531.6563 621.125,531.7813 620.3594,531.7813 C618.3125,531.7813 617.0156,530.6875 617.0156,528.9844 L617.0156,527.8906 C617.0156,526.1094 618.2656,524.7969 620,524.7969 C620.5781,524.7969 621.1875,524.9531 621.6563,525.2031 C622.1406,525.4844 622.3125,525.7031 622.4063,526.1094 C622.4688,526.5156 622.5,526.6406 622.6406,526.7656 C622.7813,526.9063 623.0156,527.0156 623.2344,527.0156 C623.5,527.0156 623.7656,526.875 623.9375,526.6563 C624.0469,526.5 624.0781,526.3125 624.0781,525.8906 L624.0781,524.4688 C624.0781,524.0313 624.0625,523.9063 623.9688,523.75 C623.8125,523.4844 623.5313,523.3438 623.2344,523.3438 C622.9375,523.3438 622.7344,523.4375 622.5156,523.75 L622.3438,523.6719 Z " fill="#000000"/><text fill="#000000" font-family="sans-serif" font-size="14" lengthAdjust="spacing" textLength="53" x="636" y="532.8467">Agency</text><line style="stroke:#181818;stroke-width:0.5;" x1="597" x2="700" y1="544" y2="544"/><text fill="#000000" font-family="sans-serif" font-size="14" lengthAdjust="spacing" textLength="93" x="602" y="560.9951">name: String</text><line style="stroke:#181818;stroke-width:0.5;" x1="597" x2="700" y1="568.2969" y2="568.2969"/></g><!--MD5=[a96594a83e2ecdc78cbf17c2ddf01934]
class Category--><g id="elem_Category"><rect codeLine="53" fill="#F1F1F1" height="64.2969" id="Category" rx="2.5" ry="2.5" style="stroke:#181818;stroke-width:0.5;" width="105" x="114" y="7"/><ellipse cx="132.15" cy="23" fill="#ADD1B2" rx="11" ry="11" style="stroke:#181818;stroke-width:1.0;"/><path d="M134.4938,18.6719 C133.5563,18.2344 132.9625,18.0938 132.0875,18.0938 C129.4625,18.0938 127.4625,20.1719 127.4625,22.8906 L127.4625,24.0156 C127.4625,26.5938 129.5719,28.4844 132.4625,28.4844 C133.6813,28.4844 134.8375,28.1875 135.5875,27.6406 C136.1656,27.2344 136.4938,26.7813 136.4938,26.3906 C136.4938,25.9375 136.1031,25.5469 135.6344,25.5469 C135.4156,25.5469 135.2125,25.625 135.025,25.8125 C134.5719,26.2969 134.5719,26.2969 134.3844,26.3906 C133.9625,26.6563 133.275,26.7813 132.5094,26.7813 C130.4625,26.7813 129.1656,25.6875 129.1656,23.9844 L129.1656,22.8906 C129.1656,21.1094 130.4156,19.7969 132.15,19.7969 C132.7281,19.7969 133.3375,19.9531 133.8063,20.2031 C134.2906,20.4844 134.4625,20.7031 134.5563,21.1094 C134.6188,21.5156 134.65,21.6406 134.7906,21.7656 C134.9313,21.9063 135.1656,22.0156 135.3844,22.0156 C135.65,22.0156 135.9156,21.875 136.0875,21.6563 C136.1969,21.5 136.2281,21.3125 136.2281,20.8906 L136.2281,19.4688 C136.2281,19.0313 136.2125,18.9063 136.1188,18.75 C135.9625,18.4844 135.6813,18.3438 135.3844,18.3438 C135.0875,18.3438 134.8844,18.4375 134.6656,18.75 L134.4938,18.6719 Z " fill="#000000"/><text fill="#000000" font-family="sans-serif" font-size="14" lengthAdjust="spacing" textLength="66" x="146.85" y="27.8467">Category</text><line style="stroke:#181818;stroke-width:0.5;" x1="115" x2="218" y1="39" y2="39"/><text fill="#000000" font-family="sans-serif" font-size="14" lengthAdjust="spacing" textLength="93" x="120" y="55.9951">name: String</text><line style="stroke:#181818;stroke-width:0.5;" x1="115" x2="218" y1="63.2969" y2="63.2969"/></g><!--MD5=[a605f9a646bac91c0f1ec4bed5c60b13]
reverse link User to Client--><g id="link_User_Client"><path codeLine="57" d="M538.5,289.523 C538.5,315.151 538.5,342.329 538.5,362.469 " fill="none" id="User-backto-Client" style="stroke:#181818;stroke-width:1.0;"/><polygon fill="none" points="531.5,289.466,538.5,269.466,545.5,289.466,531.5,289.466" style="stroke:#181818;stroke-width:1.0;"/></g><!--MD5=[db25c41ae6377e017d9f6f1472547e10]
reverse link User to Manager--><g id="link_User_Manager"><path codeLine="58" d="M602.835,284.545 C630.364,314.945 660.629,348.367 680.285,370.072 " fill="none" id="User-backto-Manager" style="stroke:#181818;stroke-width:1.0;"/><polygon fill="none" points="597.417,288.99,589.181,269.466,607.794,279.593,597.417,288.99" style="stroke:#181818;stroke-width:1.0;"/></g><!--MD5=[933987b91d2b08b1b4941f3221fa6cec]
reverse link User to Admin--><g id="link_User_Admin"><path codeLine="59" d="M476.567,284.961 C450.317,315.249 421.53,348.466 402.804,370.072 " fill="none" id="User-backto-Admin" style="stroke:#181818;stroke-width:1.0;"/><polygon fill="none" points="471.607,279.996,489.996,269.466,482.187,289.165,471.607,279.996" style="stroke:#181818;stroke-width:1.0;"/></g><!--MD5=[a9f3c220929675f8b716b109be9f0321]
reverse link Account to ExternalAccount--><g id="link_Account_ExternalAccount"><path codeLine="60" d="M82.5,455.155 C82.5,477.926 82.5,502.56 82.5,519.93 " fill="none" id="Account-backto-ExternalAccount" style="stroke:#181818;stroke-width:1.0;"/><polygon fill="none" points="75.5001,455.027,82.5,435.027,89.5001,455.027,75.5001,455.027" style="stroke:#181818;stroke-width:1.0;"/></g><!--MD5=[902568c64821548c815d7732324ddefa]
reverse link Account to InternalAccount--><g id="link_Account_InternalAccount"><path codeLine="61" d="M146.209,447.065 C163.244,459.474 182.061,472.014 200.5,482 C221.245,493.235 244.5,503.315 266.775,511.893 " fill="none" id="Account-backto-InternalAccount" style="stroke:#181818;stroke-width:1.0;"/><polygon fill="none" points="141.981,452.643,130.173,435.048,150.376,441.44,141.981,452.643" style="stroke:#181818;stroke-width:1.0;"/></g><!--MD5=[6ed4b89780074f35cd817cfd81dbc01f]
reverse link InternalAccount to CheckingAccount--><g id="link_InternalAccount_CheckingAccount"><path codeLine="62" d="M397.073,592.25 C408.042,607.2403 419.885,623.4257 429.796,636.9718 " fill="none" id="InternalAccount-backto-CheckingAccount" style="stroke:#181818;stroke-width:1.0;"/><polygon fill="none" points="391.372,596.312,385.211,576.038,402.67,588.045,391.372,596.312" style="stroke:#181818;stroke-width:1.0;"/></g><!--MD5=[fca8c7e8bcf30b4db7c731743dd28a15]
reverse link InternalAccount to SavingAcount--><g id="link_InternalAccount_SavingAcount"><path codeLine="63" d="M328.137,592.49 C315.172,610.4079 300.995,630.0011 290.332,644.7381 " fill="none" id="InternalAccount-backto-SavingAcount" style="stroke:#181818;stroke-width:1.0;"/><polygon fill="none" points="322.646,588.138,340.042,576.038,333.988,596.345,322.646,588.138" style="stroke:#181818;stroke-width:1.0;"/></g><!--MD5=[0ff1197fe23976aa03c50e1ace6a47ce]
link Transaction to InternalAccount--><g id="link_Transaction_InternalAccount"><path codeLine="64" d="M193.235,277.081 C197.162,287.038 201.044,297.257 204.5,307 C224.383,363.049 211.669,384.765 243.5,435 C260.14,461.261 284.841,485.124 307.433,503.699 " fill="none" id="Transaction-to-InternalAccount" style="stroke:#181818;stroke-width:1.0;"/><polygon fill="#181818" points="317.628,511.852,315.4406,504.9807,308.2565,504.3569,310.4439,511.2283,317.628,511.852" style="stroke:#181818;stroke-width:1.0;"/><polygon fill="#000000" points="250.7501,399.0315,249.3042,389.6315,244.0551,392.2766,250.7501,399.0315" style="stroke:#000000;stroke-width:1.0;"/><text fill="#000000" font-family="sans-serif" font-size="13" lengthAdjust="spacing" textLength="67" x="257.5" y="399.0669">hasSource</text><text fill="#000000" font-family="sans-serif" font-size="13" lengthAdjust="spacing" textLength="8" x="187.8637" y="297.4619">1</text><text fill="#000000" font-family="sans-serif" font-size="13" lengthAdjust="spacing" textLength="8" x="299.5481" y="500.7246">1</text></g><!--MD5=[f458711a0cc66de269bb50d813ddc482]
link Transaction to Account--><g id="link_Transaction_Account"><path codeLine="65" d="M119.327,277.173 C113.429,286.857 107.925,296.972 103.5,307 C98.7861,317.683 95.0254,329.596 92.0658,341.082 " fill="none" id="Transaction-to-Account" style="stroke:#181818;stroke-width:1.0;"/><polygon fill="#181818" points="89.0567,353.78,94.3322,348.8638,91.8233,342.1033,86.5478,347.0194,89.0567,353.78" style="stroke:#181818;stroke-width:1.0;"/><polygon fill="#000000" points="106.5382,320.1655,112.7904,312.9988,107.3839,310.6926,106.5382,320.1655" style="stroke:#000000;stroke-width:1.0;"/><text fill="#000000" font-family="sans-serif" font-size="13" lengthAdjust="spacing" textLength="82" x="117.5" y="320.0669">hasRecipient</text><text fill="#000000" font-family="sans-serif" font-size="13" lengthAdjust="spacing" textLength="8" x="105.4101" y="297.5646">1</text><text fill="#000000" font-family="sans-serif" font-size="13" lengthAdjust="spacing" textLength="8" x="81.4802" y="342.9051">1</text></g><!--MD5=[be68ebf87b670439e6b61d812429399f]
link Client to Agency--><g id="link_Client_Agency"><path codeLine="66" d="M561.828,426.781 C578.016,448.488 599.757,477.64 617.415,501.317 " fill="none" id="Client-to-Agency" style="stroke:#181818;stroke-width:1.0;"/><polygon fill="#181818" points="625.205,511.764,624.8248,504.5629,618.0314,502.1443,618.4116,509.3453,625.205,511.764" style="stroke:#181818;stroke-width:1.0;"/><text fill="#000000" font-family="sans-serif" font-size="13" lengthAdjust="spacing" textLength="7" x="558.9175" y="447.0358">*</text><text fill="#000000" font-family="sans-serif" font-size="13" lengthAdjust="spacing" textLength="8" x="611.8313" y="500.9917">1</text></g><!--MD5=[65dfa1cad86d5e6d9d07eb721c6b8c10]
link Manager to Agency--><g id="link_Manager_Agency"><path codeLine="67" d="M693.219,418.547 C685.463,440.132 673.671,472.949 664.143,499.465 " fill="none" id="Manager-to-Agency" style="stroke:#181818;stroke-width:1.0;"/><polygon fill="#181818" points="659.675,511.899,665.4686,507.6055,663.7337,500.6062,657.9401,504.8997,659.675,511.899" style="stroke:#181818;stroke-width:1.0;"/><polygon fill="#000000" points="677.8092,478.2719,683.6337,470.7534,678.1021,468.7658,677.8092,478.2719" style="stroke:#000000;stroke-width:1.0;"/><text fill="#000000" font-family="sans-serif" font-size="13" lengthAdjust="spacing" textLength="60" x="688.5" y="478.0669">manages</text><text fill="#000000" font-family="sans-serif" font-size="13" lengthAdjust="spacing" textLength="8" x="682.072" y="438.7148">1</text><text fill="#000000" font-family="sans-serif" font-size="13" lengthAdjust="spacing" textLength="8" x="653.1548" y="500.7813">1</text></g><!--MD5=[9b5f45bf3861cf8dd58c6d25ab63108c]
link Client to InternalAccount--><g id="link_Client_InternalAccount"><path codeLine="68" d="M517.609,426.713 C504.812,444.326 487.312,465.951 468.5,482 C455.497,493.093 440.19,503.242 425.315,511.943 " fill="none" id="Client-InternalAccount" style="stroke:#181818;stroke-width:1.0;"/><polygon fill="#000000" points="487.8267,476.9586,496.4656,472.9812,492.4779,468.663,487.8267,476.9586" style="stroke:#000000;stroke-width:1.0;"/><text fill="#000000" font-family="sans-serif" font-size="13" lengthAdjust="spacing" textLength="34" x="500.5" y="478.0669">owns</text><text fill="#000000" font-family="sans-serif" font-size="13" lengthAdjust="spacing" textLength="23" x="487.9284" y="446.9538">1..*</text><text fill="#000000" font-family="sans-serif" font-size="13" lengthAdjust="spacing" textLength="23" x="412.8987" y="500.8343">1..*</text></g><!--MD5=[9b5f45bf3861cf8dd58c6d25ab63108c]
link Client to InternalAccount--><g id="link_Client_InternalAccount"><path codeLine="69" d="M460.536,426.667 C415.801,444.636 368.29,463.903 367.5,465 C357.901,478.321 356.259,496.475 357.197,511.917 " fill="none" id="Client-InternalAccount-1" style="stroke:#181818;stroke-width:1.0;"/><polygon fill="#000000" points="368.643,476.7482,377.4906,473.2593,373.7501,468.7252,368.643,476.7482" style="stroke:#000000;stroke-width:1.0;"/><text fill="#000000" font-family="sans-serif" font-size="13" lengthAdjust="spacing" textLength="78" x="381.5" y="478.0669">hasMandate</text><text fill="#000000" font-family="sans-serif" font-size="13" lengthAdjust="spacing" textLength="23" x="426.0734" y="443.8057">1..*</text><text fill="#000000" font-family="sans-serif" font-size="13" lengthAdjust="spacing" textLength="23" x="330.7314" y="500.803">1..*</text></g><!--MD5=[76d629e4b0aebd3b40ccc36ed05c4456]
link Category to Transaction--><g id="link_Category_Transaction"><path codeLine="70" d="M166.5,71.057 C166.5,88.971 166.5,112.349 166.5,134.877 " fill="none" id="Category-to-Transaction" style="stroke:#181818;stroke-width:1.0;"/><polygon fill="none" points="166.5,147.996,170.5,141.996,166.5,135.996,162.5,141.996,166.5,147.996" style="stroke:#181818;stroke-width:1.0;"/><polygon fill="#000000" points="171.5,104.5664,168.5611,113.6115,174.4389,113.6115,171.5,104.5664" style="stroke:#000000;stroke-width:1.0;"/><text fill="#000000" font-family="sans-serif" font-size="13" lengthAdjust="spacing" textLength="23" x="180.5" y="114.0669">has</text><text fill="#000000" font-family="sans-serif" font-size="13" lengthAdjust="spacing" textLength="20" x="144.4375" y="91.2656">0,1</text><text fill="#000000" font-family="sans-serif" font-size="13" lengthAdjust="spacing" textLength="8" x="158.0375" y="136.7171">1</text></g><!--MD5=[73e727f138e6649b1d5b9ea4a8f9f259]
@startuml
abstract class User {
        firstName: String
        lastName: String 
        email: String 
        password: String 
    }

    class Client {
        clientNumber: String
    }

    class Manager {

    }

    class Admin {

    }

    abstract class Account {
        iban: String
        description: String
    }

    class ExternalAccount {

    }

    class InternalAccount {
        getBalance(DateTime dateTime): Decimal
    }

    class SavingAcount {
        
    }

    class CheckingAccount {
        lowerLimit: Decimal
    }
    
    class Transaction {
        principal: Client
        amount: Decimal 
        description: String
        creationDateTime: DateTime
        actionDateTime: DateTime
    }

    class Agency {
        name: String
    }

    class Category {
        name: String
    }

    User <|- - Client
    User <|- - Manager
    User <|- - Admin
    Account <|- - ExternalAccount
    Account <|- - InternalAccount
    InternalAccount <|- - CheckingAccount
    InternalAccount <|- - SavingAcount
    Transaction "1" - -* "1" InternalAccount: hasSource >      
    Transaction "1" - -* "1" Account: hasRecipient >     
    Client "*" - -* "1" Agency
    Manager "1" - -* "1" Agency: manages >
    Client "1..*" - - "1..*" InternalAccount: owns >
    Client "1..*" - - "1..*" InternalAccount: hasMandate >
    Category "0,1" - -o "1" Transaction: has <

@end

PlantUML version 1.2022.2(Sat Mar 05 16:30:19 UTC 2022)
(GPL source distribution)
Java Runtime: Java(TM) SE Runtime Environment
JVM: Java HotSpot(TM) 64-Bit Server VM
Default Encoding: UTF-8
Language: en
Country: US
--></g></svg>